{
    "patcher": {
        "fileversion": 1,
        "appversion": {
            "major": 9,
            "minor": 1,
            "revision": 2,
            "architecture": "x64",
            "modernui": 1
        },
        "classnamespace": "box",
        "rect": [ 34.0, 87.0, 1372.0, 779.0 ],
        "boxes": [
            {
                "box": {
                    "id": "obj-32",
                    "maxclass": "newobj",
                    "numinlets": 2,
                    "numoutlets": 1,
                    "outlettype": [ "signal" ],
                    "patching_rect": [ 180.0, 544.0, 33.0, 22.0 ],
                    "text": "!-~ 0"
                }
            },
            {
                "box": {
                    "id": "obj-31",
                    "maxclass": "newobj",
                    "numinlets": 2,
                    "numoutlets": 1,
                    "outlettype": [ "signal" ],
                    "patching_rect": [ 30.0, 544.0, 33.0, 22.0 ],
                    "text": "!-~ 0"
                }
            },
            {
                "box": {
                    "id": "obj-30",
                    "maxclass": "newobj",
                    "numinlets": 2,
                    "numoutlets": 1,
                    "outlettype": [ "float" ],
                    "patching_rect": [ 315.0, 195.0, 67.0, 22.0 ],
                    "text": "pitch_delta"
                }
            },
            {
                "box": {
                    "comment": "status",
                    "id": "obj-22",
                    "index": 2,
                    "maxclass": "inlet",
                    "numinlets": 0,
                    "numoutlets": 1,
                    "outlettype": [ "int" ],
                    "patching_rect": [ 435.0, 45.0, 30.0, 30.0 ]
                }
            },
            {
                "box": {
                    "id": "obj-10",
                    "maxclass": "message",
                    "numinlets": 2,
                    "numoutlets": 1,
                    "outlettype": [ "" ],
                    "patching_rect": [ 419.6875, 240.0, 29.5, 22.0 ],
                    "text": "0"
                }
            },
            {
                "box": {
                    "format": 6,
                    "id": "obj-13",
                    "maxclass": "flonum",
                    "numinlets": 1,
                    "numoutlets": 2,
                    "outlettype": [ "", "bang" ],
                    "parameter_enable": 0,
                    "patching_rect": [ 334.6875, 342.03125, 50.0, 22.0 ]
                }
            },
            {
                "box": {
                    "id": "obj-14",
                    "maxclass": "newobj",
                    "numinlets": 1,
                    "numoutlets": 1,
                    "outlettype": [ "float" ],
                    "patching_rect": [ 330.0, 285.0, 53.0, 22.0 ],
                    "text": "rad2deg"
                }
            },
            {
                "box": {
                    "id": "obj-15",
                    "maxclass": "newobj",
                    "numinlets": 2,
                    "numoutlets": 1,
                    "outlettype": [ "float" ],
                    "patching_rect": [ 359.53125, 240.0, 29.5, 22.0 ],
                    "text": "f"
                }
            },
            {
                "box": {
                    "id": "obj-18",
                    "maxclass": "newobj",
                    "numinlets": 2,
                    "numoutlets": 1,
                    "outlettype": [ "float" ],
                    "patching_rect": [ 315.0, 240.0, 29.5, 22.0 ],
                    "text": "+ 0."
                }
            },
            {
                "box": {
                    "comment": "y",
                    "id": "obj-12",
                    "index": 2,
                    "maxclass": "outlet",
                    "numinlets": 1,
                    "numoutlets": 0,
                    "patching_rect": [ 180.0, 586.0, 30.0, 30.0 ]
                }
            },
            {
                "box": {
                    "comment": "x",
                    "id": "obj-9",
                    "index": 1,
                    "maxclass": "outlet",
                    "numinlets": 1,
                    "numoutlets": 0,
                    "patching_rect": [ 30.0, 586.0, 30.0, 30.0 ]
                }
            },
            {
                "box": {
                    "id": "obj-2",
                    "maxclass": "newobj",
                    "numinlets": 2,
                    "numoutlets": 2,
                    "outlettype": [ "float", "int" ],
                    "patching_rect": [ 187.0, 224.5056335926056, 87.0, 22.0 ],
                    "text": "maximum 100."
                }
            },
            {
                "box": {
                    "id": "obj-4",
                    "maxclass": "newobj",
                    "numinlets": 2,
                    "numoutlets": 2,
                    "outlettype": [ "float", "" ],
                    "patching_rect": [ 187.0, 195.5056335926056, 35.0, 22.0 ],
                    "text": "timer"
                }
            },
            {
                "box": {
                    "id": "obj-144",
                    "maxclass": "message",
                    "numinlets": 2,
                    "numoutlets": 1,
                    "outlettype": [ "" ],
                    "patching_rect": [ 127.84809958934784, 216.45569336414337, 29.5, 22.0 ],
                    "text": "0"
                }
            },
            {
                "box": {
                    "format": 6,
                    "id": "obj-141",
                    "maxclass": "flonum",
                    "numinlets": 1,
                    "numoutlets": 2,
                    "outlettype": [ "", "bang" ],
                    "parameter_enable": 0,
                    "patching_rect": [ 77.0, 349.0, 50.0, 22.0 ]
                }
            },
            {
                "box": {
                    "id": "obj-142",
                    "maxclass": "newobj",
                    "numinlets": 1,
                    "numoutlets": 1,
                    "outlettype": [ "float" ],
                    "patching_rect": [ 72.0, 292.0, 53.0, 22.0 ],
                    "text": "rad2deg"
                }
            },
            {
                "box": {
                    "id": "obj-27",
                    "maxclass": "newobj",
                    "numinlets": 2,
                    "numoutlets": 1,
                    "outlettype": [ "" ],
                    "patching_rect": [ 33.70786786079407, 195.5056335926056, 63.0, 22.0 ],
                    "text": "yaw_delta"
                }
            },
            {
                "box": {
                    "id": "obj-25",
                    "maxclass": "newobj",
                    "numinlets": 2,
                    "numoutlets": 1,
                    "outlettype": [ "float" ],
                    "patching_rect": [ 78.65169167518616, 255.0562001466751, 29.5, 22.0 ],
                    "text": "f"
                }
            },
            {
                "box": {
                    "id": "obj-136",
                    "maxclass": "newobj",
                    "numinlets": 2,
                    "numoutlets": 1,
                    "outlettype": [ "float" ],
                    "patching_rect": [ 33.70786786079407, 255.0562001466751, 29.5, 22.0 ],
                    "text": "+ 0."
                }
            },
            {
                "box": {
                    "id": "obj-17",
                    "maxclass": "newobj",
                    "numinlets": 2,
                    "numoutlets": 1,
                    "outlettype": [ "" ],
                    "patching_rect": [ 30.0, 451.0, 47.0, 22.0 ],
                    "text": "pack f f"
                }
            },
            {
                "box": {
                    "id": "obj-11",
                    "maxclass": "newobj",
                    "numinlets": 2,
                    "numoutlets": 2,
                    "outlettype": [ "", "" ],
                    "patching_rect": [ 315.0, 422.0, 71.0, 22.0 ],
                    "text": "route decay"
                }
            },
            {
                "box": {
                    "id": "obj-7",
                    "maxclass": "newobj",
                    "numinlets": 1,
                    "numoutlets": 2,
                    "outlettype": [ "", "" ],
                    "patching_rect": [ 315.0, 393.0, 72.0, 22.0 ],
                    "text": "patcherargs"
                }
            },
            {
                "box": {
                    "comment": "rotation",
                    "id": "obj-3",
                    "index": 1,
                    "maxclass": "inlet",
                    "numinlets": 0,
                    "numoutlets": 1,
                    "outlettype": [ "" ],
                    "patching_rect": [ 28.0, 46.0, 30.0, 30.0 ]
                }
            },
            {
                "box": {
                    "id": "obj-54",
                    "maxclass": "newobj",
                    "numinlets": 2,
                    "numoutlets": 1,
                    "outlettype": [ "signal" ],
                    "patching_rect": [ 66.0, 511.0, 68.0, 22.0 ],
                    "text": "onepole~ 1"
                }
            },
            {
                "box": {
                    "id": "obj-55",
                    "maxclass": "newobj",
                    "numinlets": 2,
                    "numoutlets": 1,
                    "outlettype": [ "signal" ],
                    "patching_rect": [ 30.0, 511.0, 29.5, 22.0 ],
                    "text": "-~"
                }
            },
            {
                "box": {
                    "id": "obj-57",
                    "maxclass": "newobj",
                    "numinlets": 2,
                    "numoutlets": 2,
                    "outlettype": [ "signal", "bang" ],
                    "patching_rect": [ 30.0, 481.0, 34.0, 22.0 ],
                    "text": "line~"
                }
            },
            {
                "box": {
                    "id": "obj-47",
                    "maxclass": "newobj",
                    "numinlets": 2,
                    "numoutlets": 1,
                    "outlettype": [ "float" ],
                    "patching_rect": [ 315.0, 455.0, 49.0, 22.0 ],
                    "text": "!/ 1000."
                }
            },
            {
                "box": {
                    "id": "obj-37",
                    "maxclass": "newobj",
                    "numinlets": 2,
                    "numoutlets": 1,
                    "outlettype": [ "signal" ],
                    "patching_rect": [ 226.0, 511.0, 68.0, 22.0 ],
                    "text": "onepole~ 1"
                }
            },
            {
                "box": {
                    "id": "obj-36",
                    "maxclass": "newobj",
                    "numinlets": 2,
                    "numoutlets": 1,
                    "outlettype": [ "signal" ],
                    "patching_rect": [ 180.0, 511.0, 29.5, 22.0 ],
                    "text": "-~"
                }
            },
            {
                "box": {
                    "id": "obj-35",
                    "maxclass": "newobj",
                    "numinlets": 2,
                    "numoutlets": 1,
                    "outlettype": [ "" ],
                    "patching_rect": [ 180.0, 451.0, 47.0, 22.0 ],
                    "text": "pack f f"
                }
            },
            {
                "box": {
                    "id": "obj-34",
                    "maxclass": "newobj",
                    "numinlets": 2,
                    "numoutlets": 2,
                    "outlettype": [ "signal", "bang" ],
                    "patching_rect": [ 180.0, 481.0, 34.0, 22.0 ],
                    "text": "line~"
                }
            },
            {
                "box": {
                    "id": "obj-1",
                    "maxclass": "newobj",
                    "numinlets": 1,
                    "numoutlets": 3,
                    "outlettype": [ "", "", "bang" ],
                    "patching_rect": [ 28.0, 89.0, 40.0, 22.0 ],
                    "text": "t l l b"
                }
            }
        ],
        "lines": [
            {
                "patchline": {
                    "destination": [ "obj-27", 0 ],
                    "source": [ "obj-1", 0 ]
                }
            },
            {
                "patchline": {
                    "destination": [ "obj-30", 0 ],
                    "source": [ "obj-1", 1 ]
                }
            },
            {
                "patchline": {
                    "destination": [ "obj-4", 1 ],
                    "order": 0,
                    "source": [ "obj-1", 2 ]
                }
            },
            {
                "patchline": {
                    "destination": [ "obj-4", 0 ],
                    "order": 1,
                    "source": [ "obj-1", 2 ]
                }
            },
            {
                "patchline": {
                    "destination": [ "obj-15", 0 ],
                    "source": [ "obj-10", 0 ]
                }
            },
            {
                "patchline": {
                    "destination": [ "obj-47", 0 ],
                    "source": [ "obj-11", 0 ]
                }
            },
            {
                "patchline": {
                    "destination": [ "obj-142", 0 ],
                    "order": 1,
                    "source": [ "obj-136", 0 ]
                }
            },
            {
                "patchline": {
                    "destination": [ "obj-17", 0 ],
                    "order": 2,
                    "source": [ "obj-136", 0 ]
                }
            },
            {
                "patchline": {
                    "destination": [ "obj-25", 0 ],
                    "order": 0,
                    "source": [ "obj-136", 0 ]
                }
            },
            {
                "patchline": {
                    "destination": [ "obj-13", 0 ],
                    "source": [ "obj-14", 0 ]
                }
            },
            {
                "patchline": {
                    "destination": [ "obj-141", 0 ],
                    "source": [ "obj-142", 0 ]
                }
            },
            {
                "patchline": {
                    "destination": [ "obj-25", 0 ],
                    "source": [ "obj-144", 0 ]
                }
            },
            {
                "patchline": {
                    "destination": [ "obj-18", 1 ],
                    "source": [ "obj-15", 0 ]
                }
            },
            {
                "patchline": {
                    "destination": [ "obj-57", 0 ],
                    "source": [ "obj-17", 0 ]
                }
            },
            {
                "patchline": {
                    "destination": [ "obj-14", 0 ],
                    "order": 1,
                    "source": [ "obj-18", 0 ]
                }
            },
            {
                "patchline": {
                    "destination": [ "obj-15", 0 ],
                    "order": 0,
                    "source": [ "obj-18", 0 ]
                }
            },
            {
                "patchline": {
                    "destination": [ "obj-35", 0 ],
                    "order": 2,
                    "source": [ "obj-18", 0 ]
                }
            },
            {
                "patchline": {
                    "destination": [ "obj-17", 1 ],
                    "order": 1,
                    "source": [ "obj-2", 0 ]
                }
            },
            {
                "patchline": {
                    "destination": [ "obj-35", 1 ],
                    "order": 0,
                    "source": [ "obj-2", 0 ]
                }
            },
            {
                "patchline": {
                    "destination": [ "obj-27", 1 ],
                    "order": 1,
                    "source": [ "obj-22", 0 ]
                }
            },
            {
                "patchline": {
                    "destination": [ "obj-30", 1 ],
                    "order": 0,
                    "source": [ "obj-22", 0 ]
                }
            },
            {
                "patchline": {
                    "destination": [ "obj-136", 1 ],
                    "source": [ "obj-25", 0 ]
                }
            },
            {
                "patchline": {
                    "destination": [ "obj-136", 0 ],
                    "source": [ "obj-27", 0 ]
                }
            },
            {
                "patchline": {
                    "destination": [ "obj-1", 0 ],
                    "source": [ "obj-3", 0 ]
                }
            },
            {
                "patchline": {
                    "destination": [ "obj-18", 0 ],
                    "source": [ "obj-30", 0 ]
                }
            },
            {
                "patchline": {
                    "destination": [ "obj-9", 0 ],
                    "source": [ "obj-31", 0 ]
                }
            },
            {
                "patchline": {
                    "destination": [ "obj-12", 0 ],
                    "source": [ "obj-32", 0 ]
                }
            },
            {
                "patchline": {
                    "destination": [ "obj-36", 0 ],
                    "order": 1,
                    "source": [ "obj-34", 0 ]
                }
            },
            {
                "patchline": {
                    "destination": [ "obj-37", 0 ],
                    "order": 0,
                    "source": [ "obj-34", 0 ]
                }
            },
            {
                "patchline": {
                    "destination": [ "obj-34", 0 ],
                    "source": [ "obj-35", 0 ]
                }
            },
            {
                "patchline": {
                    "destination": [ "obj-32", 0 ],
                    "source": [ "obj-36", 0 ]
                }
            },
            {
                "patchline": {
                    "destination": [ "obj-36", 1 ],
                    "source": [ "obj-37", 0 ]
                }
            },
            {
                "patchline": {
                    "destination": [ "obj-2", 0 ],
                    "source": [ "obj-4", 0 ]
                }
            },
            {
                "patchline": {
                    "destination": [ "obj-37", 1 ],
                    "order": 0,
                    "source": [ "obj-47", 0 ]
                }
            },
            {
                "patchline": {
                    "destination": [ "obj-54", 1 ],
                    "order": 1,
                    "source": [ "obj-47", 0 ]
                }
            },
            {
                "patchline": {
                    "destination": [ "obj-55", 1 ],
                    "source": [ "obj-54", 0 ]
                }
            },
            {
                "patchline": {
                    "destination": [ "obj-31", 0 ],
                    "source": [ "obj-55", 0 ]
                }
            },
            {
                "patchline": {
                    "destination": [ "obj-54", 0 ],
                    "order": 0,
                    "source": [ "obj-57", 0 ]
                }
            },
            {
                "patchline": {
                    "destination": [ "obj-55", 0 ],
                    "order": 1,
                    "source": [ "obj-57", 0 ]
                }
            },
            {
                "patchline": {
                    "destination": [ "obj-11", 0 ],
                    "source": [ "obj-7", 1 ]
                }
            }
        ]
    }
}