{
    "patcher": {
        "fileversion": 1,
        "appversion": {
            "major": 9,
            "minor": 1,
            "revision": 2,
            "architecture": "x64",
            "modernui": 1
        },
        "classnamespace": "box",
        "rect": [ 59.0, 106.0, 1000.0, 700.0 ],
        "openinpresentation": 1,
        "boxes": [
            {
                "box": {
                    "id": "obj-4",
                    "maxclass": "newobj",
                    "numinlets": 1,
                    "numoutlets": 4,
                    "outlettype": [ "", "", "", "" ],
                    "patching_rect": [ 360.0, 90.0, 56.0, 22.0 ],
                    "restore": {
                        "pose": [ 0 ]
                    },
                    "text": "autopattr",
                    "varname": "u384008899"
                }
            },
            {
                "box": {
                    "id": "obj-3",
                    "maxclass": "newobj",
                    "numinlets": 1,
                    "numoutlets": 1,
                    "outlettype": [ "" ],
                    "patching_rect": [ 360.0, 60.0, 140.0, 22.0 ],
                    "saved_object_attributes": {
                        "client_rect": [ 100, 159, 454, 287 ],
                        "parameter_enable": 0,
                        "parameter_mappable": 0,
                        "storage_rect": [ 583, 69, 1034, 197 ]
                    },
                    "text": "pattrstorage pose_select",
                    "varname": "pose_select"
                }
            },
            {
                "box": {
                    "comment": "pose amount",
                    "id": "obj-2",
                    "index": 0,
                    "maxclass": "outlet",
                    "numinlets": 1,
                    "numoutlets": 0,
                    "patching_rect": [ 15.0, 270.0, 30.0, 30.0 ]
                }
            },
            {
                "box": {
                    "comment": "rotation",
                    "id": "obj-1",
                    "index": 0,
                    "maxclass": "inlet",
                    "numinlets": 0,
                    "numoutlets": 1,
                    "outlettype": [ "" ],
                    "patching_rect": [ 15.0, 15.0, 30.0, 30.0 ]
                }
            },
            {
                "box": {
                    "id": "obj-85",
                    "maxclass": "newobj",
                    "numinlets": 2,
                    "numoutlets": 2,
                    "outlettype": [ "float", "int" ],
                    "patching_rect": [ 226.0, 195.0, 74.0, 22.0 ],
                    "text": "maximum 0."
                }
            },
            {
                "box": {
                    "id": "obj-86",
                    "maxclass": "newobj",
                    "numinlets": 2,
                    "numoutlets": 1,
                    "outlettype": [ "int" ],
                    "patching_rect": [ 226.0, 150.0, 36.0, 22.0 ],
                    "text": "> 0.5"
                }
            },
            {
                "box": {
                    "id": "obj-82",
                    "maxclass": "newobj",
                    "numinlets": 2,
                    "numoutlets": 2,
                    "outlettype": [ "float", "int" ],
                    "patching_rect": [ 135.0, 195.0, 74.0, 22.0 ],
                    "text": "maximum 0."
                }
            },
            {
                "box": {
                    "id": "obj-81",
                    "maxclass": "newobj",
                    "numinlets": 2,
                    "numoutlets": 1,
                    "outlettype": [ "int" ],
                    "patching_rect": [ 135.0, 150.0, 36.0, 22.0 ],
                    "text": "> 0.5"
                }
            },
            {
                "box": {
                    "id": "obj-77",
                    "maxclass": "message",
                    "numinlets": 2,
                    "numoutlets": 1,
                    "outlettype": [ "" ],
                    "patching_rect": [ 15.0, 150.0, 109.0, 22.0 ],
                    "text": "clear, connect $1 0"
                }
            },
            {
                "box": {
                    "id": "obj-73",
                    "maxclass": "newobj",
                    "numinlets": 6,
                    "numoutlets": 2,
                    "outlettype": [ "", "" ],
                    "patching_rect": [ 15.0, 240.0, 72.0, 22.0 ],
                    "text": "router 5 1"
                }
            },
            {
                "box": {
                    "fontsize": 12.0,
                    "id": "obj-72",
                    "items": [ "Upwards", ",", "Downwards", ",", "Horizontal", ",", "Above", ",", "Below" ],
                    "maxclass": "umenu",
                    "numinlets": 1,
                    "numoutlets": 3,
                    "outlettype": [ "int", "", "" ],
                    "parameter_enable": 0,
                    "patching_rect": [ 15.0, 105.0, 90.0, 22.0 ],
                    "presentation": 1,
                    "presentation_rect": [ 0.0, 0.0, 90.0, 22.0 ],
                    "varname": "pose"
                }
            },
            {
                "box": {
                    "id": "obj-47",
                    "maxclass": "newobj",
                    "numinlets": 1,
                    "numoutlets": 3,
                    "outlettype": [ "float", "float", "" ],
                    "patching_rect": [ 15.0, 60.0, 77.0, 22.0 ],
                    "text": "sensor_pose"
                }
            }
        ],
        "lines": [
            {
                "patchline": {
                    "destination": [ "obj-47", 0 ],
                    "source": [ "obj-1", 0 ]
                }
            },
            {
                "patchline": {
                    "destination": [ "obj-73", 3 ],
                    "order": 2,
                    "source": [ "obj-47", 2 ]
                }
            },
            {
                "patchline": {
                    "destination": [ "obj-73", 2 ],
                    "order": 1,
                    "source": [ "obj-47", 1 ]
                }
            },
            {
                "patchline": {
                    "destination": [ "obj-73", 1 ],
                    "order": 1,
                    "source": [ "obj-47", 0 ]
                }
            },
            {
                "patchline": {
                    "destination": [ "obj-81", 0 ],
                    "order": 0,
                    "source": [ "obj-47", 0 ]
                }
            },
            {
                "patchline": {
                    "destination": [ "obj-82", 1 ],
                    "order": 1,
                    "source": [ "obj-47", 2 ]
                }
            },
            {
                "patchline": {
                    "destination": [ "obj-85", 1 ],
                    "order": 0,
                    "source": [ "obj-47", 2 ]
                }
            },
            {
                "patchline": {
                    "destination": [ "obj-86", 0 ],
                    "order": 0,
                    "source": [ "obj-47", 1 ]
                }
            },
            {
                "patchline": {
                    "destination": [ "obj-77", 0 ],
                    "source": [ "obj-72", 0 ]
                }
            },
            {
                "patchline": {
                    "destination": [ "obj-2", 0 ],
                    "source": [ "obj-73", 0 ]
                }
            },
            {
                "patchline": {
                    "destination": [ "obj-73", 0 ],
                    "source": [ "obj-77", 0 ]
                }
            },
            {
                "patchline": {
                    "destination": [ "obj-82", 0 ],
                    "source": [ "obj-81", 0 ]
                }
            },
            {
                "patchline": {
                    "destination": [ "obj-73", 4 ],
                    "source": [ "obj-82", 0 ]
                }
            },
            {
                "patchline": {
                    "destination": [ "obj-73", 5 ],
                    "source": [ "obj-85", 0 ]
                }
            },
            {
                "patchline": {
                    "destination": [ "obj-85", 0 ],
                    "source": [ "obj-86", 0 ]
                }
            }
        ],
        "autosave": 0
    }
}