{
    "patcher": {
        "fileversion": 1,
        "appversion": {
            "major": 9,
            "minor": 1,
            "revision": 2,
            "architecture": "x64",
            "modernui": 1
        },
        "classnamespace": "box",
        "rect": [ 59.0, 106.0, 1000.0, 700.0 ],
        "boxes": [
            {
                "box": {
                    "id": "obj-4",
                    "maxclass": "newobj",
                    "numinlets": 1,
                    "numoutlets": 1,
                    "outlettype": [ "" ],
                    "patching_rect": [ 165.0, 15.0, 110.0, 22.0 ],
                    "text": "loadmess #1 #2 #3"
                }
            },
            {
                "box": {
                    "comment": "",
                    "id": "obj-3",
                    "index": 1,
                    "maxclass": "outlet",
                    "numinlets": 1,
                    "numoutlets": 0,
                    "patching_rect": [ 15.0, 150.0, 30.0, 30.0 ]
                }
            },
            {
                "box": {
                    "id": "obj-183",
                    "maxclass": "newobj",
                    "numinlets": 1,
                    "numoutlets": 1,
                    "outlettype": [ "float" ],
                    "patching_rect": [ 15.0, 120.0, 29.0, 22.0 ],
                    "text": "sqrt"
                }
            },
            {
                "box": {
                    "id": "obj-182",
                    "maxclass": "newobj",
                    "numinlets": 2,
                    "numoutlets": 2,
                    "outlettype": [ "", "" ],
                    "patching_rect": [ 15.0, 90.0, 43.0, 22.0 ],
                    "text": "zl.sum"
                }
            },
            {
                "box": {
                    "id": "obj-181",
                    "maxclass": "newobj",
                    "numinlets": 2,
                    "numoutlets": 1,
                    "outlettype": [ "" ],
                    "patching_rect": [ 15.0, 60.0, 137.0, 22.0 ],
                    "text": "vexpr pow(($f1 - $f2)\\, 2)"
                }
            },
            {
                "box": {
                    "comment": "",
                    "cool": 1,
                    "id": "obj-2",
                    "index": 2,
                    "maxclass": "inlet",
                    "numinlets": 0,
                    "numoutlets": 1,
                    "outlettype": [ "" ],
                    "patching_rect": [ 120.0, 15.0, 30.0, 30.0 ]
                }
            },
            {
                "box": {
                    "comment": "",
                    "id": "obj-1",
                    "index": 1,
                    "maxclass": "inlet",
                    "numinlets": 0,
                    "numoutlets": 1,
                    "outlettype": [ "" ],
                    "patching_rect": [ 15.0, 15.0, 30.0, 30.0 ]
                }
            }
        ],
        "lines": [
            {
                "patchline": {
                    "destination": [ "obj-181", 0 ],
                    "source": [ "obj-1", 0 ]
                }
            },
            {
                "patchline": {
                    "destination": [ "obj-182", 0 ],
                    "source": [ "obj-181", 0 ]
                }
            },
            {
                "patchline": {
                    "destination": [ "obj-183", 0 ],
                    "source": [ "obj-182", 0 ]
                }
            },
            {
                "patchline": {
                    "destination": [ "obj-3", 0 ],
                    "source": [ "obj-183", 0 ]
                }
            },
            {
                "patchline": {
                    "destination": [ "obj-181", 1 ],
                    "source": [ "obj-2", 0 ]
                }
            },
            {
                "patchline": {
                    "destination": [ "obj-181", 1 ],
                    "source": [ "obj-4", 0 ]
                }
            }
        ]
    }
}