{
    "patcher": {
        "fileversion": 1,
        "appversion": {
            "major": 9,
            "minor": 1,
            "revision": 2,
            "architecture": "x64",
            "modernui": 1
        },
        "classnamespace": "box",
        "rect": [ 535.0, 125.0, 1000.0, 700.0 ],
        "boxes": [
            {
                "box": {
                    "id": "obj-2",
                    "maxclass": "newobj",
                    "numinlets": 1,
                    "numoutlets": 1,
                    "outlettype": [ "float" ],
                    "patcher": {
                        "fileversion": 1,
                        "appversion": {
                            "major": 9,
                            "minor": 1,
                            "revision": 2,
                            "architecture": "x64",
                            "modernui": 1
                        },
                        "classnamespace": "dsp.gen",
                        "rect": [ 84.0, 131.0, 600.0, 450.0 ],
                        "boxes": [
                            {
                                "box": {
                                    "id": "obj-1",
                                    "maxclass": "newobj",
                                    "numinlets": 0,
                                    "numoutlets": 1,
                                    "outlettype": [ "" ],
                                    "patching_rect": [ 50.0, 14.0, 28.0, 22.0 ],
                                    "text": "in 1"
                                }
                            },
                            {
                                "box": {
                                    "id": "obj-3",
                                    "maxclass": "newobj",
                                    "numinlets": 1,
                                    "numoutlets": 1,
                                    "outlettype": [ "" ],
                                    "patching_rect": [ 176.0, 149.0, 34.0, 22.0 ],
                                    "text": "% PI"
                                }
                            },
                            {
                                "box": {
                                    "id": "obj-4",
                                    "maxclass": "newobj",
                                    "numinlets": 1,
                                    "numoutlets": 0,
                                    "patching_rect": [ 176.0, 418.0, 35.0, 22.0 ],
                                    "text": "out 1"
                                }
                            }
                        ],
                        "lines": [
                            {
                                "patchline": {
                                    "destination": [ "obj-3", 0 ],
                                    "source": [ "obj-1", 0 ]
                                }
                            },
                            {
                                "patchline": {
                                    "destination": [ "obj-4", 0 ],
                                    "source": [ "obj-3", 0 ]
                                }
                            }
                        ]
                    },
                    "patching_rect": [ 15.0, 257.0, 29.5, 22.0 ],
                    "text": "gen"
                }
            },
            {
                "box": {
                    "id": "obj-42",
                    "maxclass": "newobj",
                    "numinlets": 2,
                    "numoutlets": 2,
                    "outlettype": [ "", "" ],
                    "patching_rect": [ 15.0, 184.0, 66.0, 22.0 ],
                    "text": "route /quat"
                }
            },
            {
                "box": {
                    "id": "obj-39",
                    "maxclass": "newobj",
                    "numinlets": 1,
                    "numoutlets": 1,
                    "outlettype": [ "" ],
                    "patching_rect": [ 105.0, 120.0, 83.0, 22.0 ],
                    "text": "prepend /quat"
                }
            },
            {
                "box": {
                    "id": "obj-38",
                    "maxclass": "newobj",
                    "numinlets": 1,
                    "numoutlets": 1,
                    "outlettype": [ "" ],
                    "patching_rect": [ 15.0, 120.0, 83.0, 22.0 ],
                    "text": "prepend /quat"
                }
            },
            {
                "box": {
                    "id": "obj-34",
                    "maxclass": "newobj",
                    "numinlets": 2,
                    "numoutlets": 2,
                    "outlettype": [ "", "" ],
                    "patching_rect": [ 15.0, 150.0, 109.0, 22.0 ],
                    "text": "spat5.quat.multiply"
                }
            },
            {
                "box": {
                    "id": "obj-33",
                    "maxclass": "newobj",
                    "numinlets": 1,
                    "numoutlets": 2,
                    "outlettype": [ "", "" ],
                    "patching_rect": [ 105.0, 90.0, 107.0, 22.0 ],
                    "text": "spat5.quat.inverse"
                }
            },
            {
                "box": {
                    "id": "obj-16",
                    "maxclass": "newobj",
                    "numinlets": 1,
                    "numoutlets": 2,
                    "outlettype": [ "", "" ],
                    "patching_rect": [ 15.0, 60.0, 29.5, 22.0 ],
                    "text": "t l l"
                }
            },
            {
                "box": {
                    "id": "obj-4",
                    "maxclass": "newobj",
                    "numinlets": 4,
                    "numoutlets": 1,
                    "outlettype": [ "" ],
                    "patching_rect": [ 15.0, 224.0, 327.0, 22.0 ],
                    "text": "expr atan2(2 * $f2 * $f4\\, $f4*$f4 - $f1*$f1 - $f2*$f2 - $f3*$f3)"
                }
            },
            {
                "box": {
                    "comment": "",
                    "id": "obj-3",
                    "index": 1,
                    "maxclass": "outlet",
                    "numinlets": 1,
                    "numoutlets": 0,
                    "patching_rect": [ 13.0, 304.0, 30.0, 30.0 ]
                }
            },
            {
                "box": {
                    "comment": "",
                    "id": "obj-1",
                    "index": 1,
                    "maxclass": "inlet",
                    "numinlets": 0,
                    "numoutlets": 1,
                    "outlettype": [ "" ],
                    "patching_rect": [ 15.0, 15.0, 30.0, 30.0 ]
                }
            }
        ],
        "lines": [
            {
                "patchline": {
                    "destination": [ "obj-16", 0 ],
                    "source": [ "obj-1", 0 ]
                }
            },
            {
                "patchline": {
                    "destination": [ "obj-33", 0 ],
                    "source": [ "obj-16", 0 ]
                }
            },
            {
                "patchline": {
                    "destination": [ "obj-38", 0 ],
                    "source": [ "obj-16", 1 ]
                }
            },
            {
                "patchline": {
                    "destination": [ "obj-3", 0 ],
                    "source": [ "obj-2", 0 ]
                }
            },
            {
                "patchline": {
                    "destination": [ "obj-39", 0 ],
                    "source": [ "obj-33", 0 ]
                }
            },
            {
                "patchline": {
                    "destination": [ "obj-42", 0 ],
                    "source": [ "obj-34", 0 ]
                }
            },
            {
                "patchline": {
                    "destination": [ "obj-34", 0 ],
                    "source": [ "obj-38", 0 ]
                }
            },
            {
                "patchline": {
                    "destination": [ "obj-34", 1 ],
                    "source": [ "obj-39", 0 ]
                }
            },
            {
                "patchline": {
                    "destination": [ "obj-2", 0 ],
                    "source": [ "obj-4", 0 ]
                }
            },
            {
                "patchline": {
                    "destination": [ "obj-4", 0 ],
                    "source": [ "obj-42", 0 ]
                }
            }
        ]
    }
}