{
    "patcher": {
        "fileversion": 1,
        "appversion": {
            "major": 9,
            "minor": 1,
            "revision": 2,
            "architecture": "x64",
            "modernui": 1
        },
        "classnamespace": "box",
        "rect": [ 59.0, 106.0, 1000.0, 700.0 ],
        "boxes": [
            {
                "box": {
                    "id": "obj-6",
                    "maxclass": "newobj",
                    "numinlets": 1,
                    "numoutlets": 1,
                    "outlettype": [ "float" ],
                    "patching_rect": [ 15.0, 315.0, 53.0, 22.0 ],
                    "text": "rad2deg"
                }
            },
            {
                "box": {
                    "id": "obj-154",
                    "maxclass": "newobj",
                    "numinlets": 1,
                    "numoutlets": 1,
                    "outlettype": [ "float" ],
                    "patcher": {
                        "fileversion": 1,
                        "appversion": {
                            "major": 9,
                            "minor": 1,
                            "revision": 2,
                            "architecture": "x64",
                            "modernui": 1
                        },
                        "classnamespace": "dsp.gen",
                        "rect": [ 707.0, 247.0, 600.0, 450.0 ],
                        "boxes": [
                            {
                                "box": {
                                    "id": "obj-10",
                                    "maxclass": "newobj",
                                    "numinlets": 1,
                                    "numoutlets": 0,
                                    "patching_rect": [ 45.0, 345.0, 35.0, 22.0 ],
                                    "text": "out 1"
                                }
                            },
                            {
                                "box": {
                                    "code": "delta = in1;\r\n\r\nif(in1 > PI){\r\n    delta -= TWOPI;\r\n}\r\nelse if(in1 < -PI){\r\n    delta += TWOPI;\r\n}\r\n\r\nout1 = delta;",
                                    "fontface": 0,
                                    "fontname": "<Monospaced>",
                                    "fontsize": 12.0,
                                    "id": "obj-7",
                                    "maxclass": "codebox",
                                    "numinlets": 1,
                                    "numoutlets": 1,
                                    "outlettype": [ "" ],
                                    "patching_rect": [ 45.0, 135.0, 340.0, 200.0 ]
                                }
                            },
                            {
                                "box": {
                                    "id": "obj-6",
                                    "maxclass": "newobj",
                                    "numinlets": 1,
                                    "numoutlets": 1,
                                    "outlettype": [ "" ],
                                    "patching_rect": [ 120.0, 60.0, 44.0, 22.0 ],
                                    "text": "history"
                                }
                            },
                            {
                                "box": {
                                    "id": "obj-5",
                                    "maxclass": "newobj",
                                    "numinlets": 2,
                                    "numoutlets": 1,
                                    "outlettype": [ "" ],
                                    "patching_rect": [ 45.0, 105.0, 29.5, 22.0 ],
                                    "text": "-"
                                }
                            },
                            {
                                "box": {
                                    "id": "obj-1",
                                    "maxclass": "newobj",
                                    "numinlets": 0,
                                    "numoutlets": 1,
                                    "outlettype": [ "" ],
                                    "patching_rect": [ 45.0, 15.0, 28.0, 22.0 ],
                                    "text": "in 1"
                                }
                            }
                        ],
                        "lines": [
                            {
                                "patchline": {
                                    "destination": [ "obj-5", 0 ],
                                    "order": 1,
                                    "source": [ "obj-1", 0 ]
                                }
                            },
                            {
                                "patchline": {
                                    "destination": [ "obj-6", 0 ],
                                    "order": 0,
                                    "source": [ "obj-1", 0 ]
                                }
                            },
                            {
                                "patchline": {
                                    "destination": [ "obj-7", 0 ],
                                    "source": [ "obj-5", 0 ]
                                }
                            },
                            {
                                "patchline": {
                                    "destination": [ "obj-5", 1 ],
                                    "source": [ "obj-6", 0 ]
                                }
                            },
                            {
                                "patchline": {
                                    "destination": [ "obj-10", 0 ],
                                    "source": [ "obj-7", 0 ]
                                }
                            }
                        ]
                    },
                    "patching_rect": [ 285.0, 180.0, 105.0, 22.0 ],
                    "text": "gen @title unwrap"
                }
            },
            {
                "box": {
                    "id": "obj-153",
                    "maxclass": "newobj",
                    "numinlets": 1,
                    "numoutlets": 1,
                    "outlettype": [ "float" ],
                    "patcher": {
                        "fileversion": 1,
                        "appversion": {
                            "major": 9,
                            "minor": 1,
                            "revision": 2,
                            "architecture": "x64",
                            "modernui": 1
                        },
                        "classnamespace": "dsp.gen",
                        "rect": [ 707.0, 247.0, 600.0, 450.0 ],
                        "boxes": [
                            {
                                "box": {
                                    "id": "obj-10",
                                    "maxclass": "newobj",
                                    "numinlets": 1,
                                    "numoutlets": 0,
                                    "patching_rect": [ 45.0, 345.0, 35.0, 22.0 ],
                                    "text": "out 1"
                                }
                            },
                            {
                                "box": {
                                    "code": "delta = in1;\r\n\r\nif(in1 > PI){\r\n    delta -= TWOPI;\r\n}\r\nelse if(in1 < -PI){\r\n    delta += TWOPI;\r\n}\r\n\r\nout1 = delta;",
                                    "fontface": 0,
                                    "fontname": "<Monospaced>",
                                    "fontsize": 12.0,
                                    "id": "obj-7",
                                    "maxclass": "codebox",
                                    "numinlets": 1,
                                    "numoutlets": 1,
                                    "outlettype": [ "" ],
                                    "patching_rect": [ 45.0, 135.0, 340.0, 200.0 ]
                                }
                            },
                            {
                                "box": {
                                    "id": "obj-6",
                                    "maxclass": "newobj",
                                    "numinlets": 1,
                                    "numoutlets": 1,
                                    "outlettype": [ "" ],
                                    "patching_rect": [ 120.0, 60.0, 44.0, 22.0 ],
                                    "text": "history"
                                }
                            },
                            {
                                "box": {
                                    "id": "obj-5",
                                    "maxclass": "newobj",
                                    "numinlets": 2,
                                    "numoutlets": 1,
                                    "outlettype": [ "" ],
                                    "patching_rect": [ 45.0, 105.0, 29.5, 22.0 ],
                                    "text": "-"
                                }
                            },
                            {
                                "box": {
                                    "id": "obj-1",
                                    "maxclass": "newobj",
                                    "numinlets": 0,
                                    "numoutlets": 1,
                                    "outlettype": [ "" ],
                                    "patching_rect": [ 45.0, 15.0, 28.0, 22.0 ],
                                    "text": "in 1"
                                }
                            }
                        ],
                        "lines": [
                            {
                                "patchline": {
                                    "destination": [ "obj-5", 0 ],
                                    "order": 1,
                                    "source": [ "obj-1", 0 ]
                                }
                            },
                            {
                                "patchline": {
                                    "destination": [ "obj-6", 0 ],
                                    "order": 0,
                                    "source": [ "obj-1", 0 ]
                                }
                            },
                            {
                                "patchline": {
                                    "destination": [ "obj-7", 0 ],
                                    "source": [ "obj-5", 0 ]
                                }
                            },
                            {
                                "patchline": {
                                    "destination": [ "obj-5", 1 ],
                                    "source": [ "obj-6", 0 ]
                                }
                            },
                            {
                                "patchline": {
                                    "destination": [ "obj-10", 0 ],
                                    "source": [ "obj-7", 0 ]
                                }
                            }
                        ]
                    },
                    "patching_rect": [ 150.0, 180.0, 105.0, 22.0 ],
                    "text": "gen @title unwrap"
                }
            },
            {
                "box": {
                    "id": "obj-148",
                    "maxclass": "newobj",
                    "numinlets": 1,
                    "numoutlets": 1,
                    "outlettype": [ "float" ],
                    "patcher": {
                        "fileversion": 1,
                        "appversion": {
                            "major": 9,
                            "minor": 1,
                            "revision": 2,
                            "architecture": "x64",
                            "modernui": 1
                        },
                        "classnamespace": "dsp.gen",
                        "rect": [ 707.0, 247.0, 600.0, 450.0 ],
                        "boxes": [
                            {
                                "box": {
                                    "id": "obj-10",
                                    "maxclass": "newobj",
                                    "numinlets": 1,
                                    "numoutlets": 0,
                                    "patching_rect": [ 45.0, 345.0, 35.0, 22.0 ],
                                    "text": "out 1"
                                }
                            },
                            {
                                "box": {
                                    "code": "delta = in1;\r\n\r\nif(in1 > PI){\r\n    delta -= TWOPI;\r\n}\r\nelse if(in1 < -PI){\r\n    delta += TWOPI;\r\n}\r\n\r\nout1 = delta;",
                                    "fontface": 0,
                                    "fontname": "<Monospaced>",
                                    "fontsize": 12.0,
                                    "id": "obj-7",
                                    "maxclass": "codebox",
                                    "numinlets": 1,
                                    "numoutlets": 1,
                                    "outlettype": [ "" ],
                                    "patching_rect": [ 45.0, 135.0, 340.0, 200.0 ]
                                }
                            },
                            {
                                "box": {
                                    "id": "obj-6",
                                    "maxclass": "newobj",
                                    "numinlets": 1,
                                    "numoutlets": 1,
                                    "outlettype": [ "" ],
                                    "patching_rect": [ 120.0, 60.0, 44.0, 22.0 ],
                                    "text": "history"
                                }
                            },
                            {
                                "box": {
                                    "id": "obj-5",
                                    "maxclass": "newobj",
                                    "numinlets": 2,
                                    "numoutlets": 1,
                                    "outlettype": [ "" ],
                                    "patching_rect": [ 45.0, 105.0, 29.5, 22.0 ],
                                    "text": "-"
                                }
                            },
                            {
                                "box": {
                                    "id": "obj-1",
                                    "maxclass": "newobj",
                                    "numinlets": 0,
                                    "numoutlets": 1,
                                    "outlettype": [ "" ],
                                    "patching_rect": [ 45.0, 15.0, 28.0, 22.0 ],
                                    "text": "in 1"
                                }
                            }
                        ],
                        "lines": [
                            {
                                "patchline": {
                                    "destination": [ "obj-5", 0 ],
                                    "order": 1,
                                    "source": [ "obj-1", 0 ]
                                }
                            },
                            {
                                "patchline": {
                                    "destination": [ "obj-6", 0 ],
                                    "order": 0,
                                    "source": [ "obj-1", 0 ]
                                }
                            },
                            {
                                "patchline": {
                                    "destination": [ "obj-7", 0 ],
                                    "source": [ "obj-5", 0 ]
                                }
                            },
                            {
                                "patchline": {
                                    "destination": [ "obj-5", 1 ],
                                    "source": [ "obj-6", 0 ]
                                }
                            },
                            {
                                "patchline": {
                                    "destination": [ "obj-10", 0 ],
                                    "source": [ "obj-7", 0 ]
                                }
                            }
                        ]
                    },
                    "patching_rect": [ 15.0, 180.0, 105.0, 22.0 ],
                    "text": "gen @title unwrap"
                }
            },
            {
                "box": {
                    "id": "obj-132",
                    "maxclass": "newobj",
                    "numinlets": 2,
                    "numoutlets": 2,
                    "outlettype": [ "", "" ],
                    "patching_rect": [ 15.0, 284.0, 47.0, 22.0 ],
                    "text": "zl.nth 2"
                }
            },
            {
                "box": {
                    "id": "obj-131",
                    "maxclass": "newobj",
                    "numinlets": 2,
                    "numoutlets": 2,
                    "outlettype": [ "", "" ],
                    "patching_rect": [ 15.0, 254.0, 41.0, 22.0 ],
                    "text": "zl.sort"
                }
            },
            {
                "box": {
                    "id": "obj-130",
                    "maxclass": "newobj",
                    "numinlets": 3,
                    "numoutlets": 1,
                    "outlettype": [ "" ],
                    "patching_rect": [ 15.0, 225.0, 54.0, 22.0 ],
                    "text": "pack f f f"
                }
            },
            {
                "box": {
                    "id": "obj-117",
                    "maxclass": "newobj",
                    "numinlets": 2,
                    "numoutlets": 1,
                    "outlettype": [ "float" ],
                    "patching_rect": [ 15.0, 148.0, 39.0, 22.0 ],
                    "text": "atan2"
                }
            },
            {
                "box": {
                    "id": "obj-118",
                    "maxclass": "newobj",
                    "numinlets": 1,
                    "numoutlets": 3,
                    "outlettype": [ "float", "float", "float" ],
                    "patching_rect": [ 15.0, 120.0, 67.0, 22.0 ],
                    "text": "unpack f f f"
                }
            },
            {
                "box": {
                    "id": "obj-119",
                    "maxclass": "newobj",
                    "numinlets": 1,
                    "numoutlets": 1,
                    "outlettype": [ "" ],
                    "patching_rect": [ 15.0, 90.0, 119.0, 22.0 ],
                    "text": "rotate_vector 1. 0. 0."
                }
            },
            {
                "box": {
                    "id": "obj-108",
                    "maxclass": "newobj",
                    "numinlets": 2,
                    "numoutlets": 1,
                    "outlettype": [ "float" ],
                    "patching_rect": [ 150.0, 148.0, 39.0, 22.0 ],
                    "text": "atan2"
                }
            },
            {
                "box": {
                    "id": "obj-109",
                    "maxclass": "newobj",
                    "numinlets": 1,
                    "numoutlets": 3,
                    "outlettype": [ "float", "float", "float" ],
                    "patching_rect": [ 150.0, 120.0, 67.0, 22.0 ],
                    "text": "unpack f f f"
                }
            },
            {
                "box": {
                    "id": "obj-111",
                    "maxclass": "newobj",
                    "numinlets": 1,
                    "numoutlets": 1,
                    "outlettype": [ "" ],
                    "patching_rect": [ 150.0, 90.0, 119.0, 22.0 ],
                    "text": "rotate_vector 0. 1. 0."
                }
            },
            {
                "box": {
                    "id": "obj-100",
                    "maxclass": "newobj",
                    "numinlets": 1,
                    "numoutlets": 3,
                    "outlettype": [ "", "", "" ],
                    "patching_rect": [ 15.0, 60.0, 40.0, 22.0 ],
                    "text": "t l l l"
                }
            },
            {
                "box": {
                    "id": "obj-93",
                    "maxclass": "newobj",
                    "numinlets": 2,
                    "numoutlets": 1,
                    "outlettype": [ "float" ],
                    "patching_rect": [ 285.0, 148.0, 39.0, 22.0 ],
                    "text": "atan2"
                }
            },
            {
                "box": {
                    "id": "obj-94",
                    "maxclass": "newobj",
                    "numinlets": 1,
                    "numoutlets": 3,
                    "outlettype": [ "float", "float", "float" ],
                    "patching_rect": [ 285.0, 120.0, 67.0, 22.0 ],
                    "text": "unpack f f f"
                }
            },
            {
                "box": {
                    "id": "obj-95",
                    "maxclass": "newobj",
                    "numinlets": 1,
                    "numoutlets": 1,
                    "outlettype": [ "" ],
                    "patching_rect": [ 285.0, 90.0, 119.0, 22.0 ],
                    "text": "rotate_vector 0. 0. 1."
                }
            },
            {
                "box": {
                    "comment": "",
                    "id": "obj-3",
                    "index": 1,
                    "maxclass": "outlet",
                    "numinlets": 1,
                    "numoutlets": 0,
                    "patching_rect": [ 15.0, 345.0, 30.0, 30.0 ]
                }
            },
            {
                "box": {
                    "comment": "",
                    "id": "obj-1",
                    "index": 1,
                    "maxclass": "inlet",
                    "numinlets": 0,
                    "numoutlets": 1,
                    "outlettype": [ "" ],
                    "patching_rect": [ 15.0, 15.0, 30.0, 30.0 ]
                }
            }
        ],
        "lines": [
            {
                "patchline": {
                    "destination": [ "obj-100", 0 ],
                    "source": [ "obj-1", 0 ]
                }
            },
            {
                "patchline": {
                    "destination": [ "obj-111", 0 ],
                    "source": [ "obj-100", 1 ]
                }
            },
            {
                "patchline": {
                    "destination": [ "obj-119", 0 ],
                    "source": [ "obj-100", 0 ]
                }
            },
            {
                "patchline": {
                    "destination": [ "obj-95", 0 ],
                    "source": [ "obj-100", 2 ]
                }
            },
            {
                "patchline": {
                    "destination": [ "obj-153", 0 ],
                    "source": [ "obj-108", 0 ]
                }
            },
            {
                "patchline": {
                    "destination": [ "obj-108", 1 ],
                    "source": [ "obj-109", 2 ]
                }
            },
            {
                "patchline": {
                    "destination": [ "obj-108", 0 ],
                    "source": [ "obj-109", 0 ]
                }
            },
            {
                "patchline": {
                    "destination": [ "obj-109", 0 ],
                    "source": [ "obj-111", 0 ]
                }
            },
            {
                "patchline": {
                    "destination": [ "obj-148", 0 ],
                    "source": [ "obj-117", 0 ]
                }
            },
            {
                "patchline": {
                    "destination": [ "obj-117", 1 ],
                    "source": [ "obj-118", 2 ]
                }
            },
            {
                "patchline": {
                    "destination": [ "obj-117", 0 ],
                    "source": [ "obj-118", 0 ]
                }
            },
            {
                "patchline": {
                    "destination": [ "obj-118", 0 ],
                    "source": [ "obj-119", 0 ]
                }
            },
            {
                "patchline": {
                    "destination": [ "obj-131", 0 ],
                    "source": [ "obj-130", 0 ]
                }
            },
            {
                "patchline": {
                    "destination": [ "obj-132", 0 ],
                    "source": [ "obj-131", 0 ]
                }
            },
            {
                "patchline": {
                    "destination": [ "obj-6", 0 ],
                    "source": [ "obj-132", 0 ]
                }
            },
            {
                "patchline": {
                    "destination": [ "obj-130", 0 ],
                    "source": [ "obj-148", 0 ]
                }
            },
            {
                "patchline": {
                    "destination": [ "obj-130", 1 ],
                    "source": [ "obj-153", 0 ]
                }
            },
            {
                "patchline": {
                    "destination": [ "obj-130", 2 ],
                    "source": [ "obj-154", 0 ]
                }
            },
            {
                "patchline": {
                    "destination": [ "obj-3", 0 ],
                    "source": [ "obj-6", 0 ]
                }
            },
            {
                "patchline": {
                    "destination": [ "obj-154", 0 ],
                    "source": [ "obj-93", 0 ]
                }
            },
            {
                "patchline": {
                    "destination": [ "obj-93", 1 ],
                    "source": [ "obj-94", 2 ]
                }
            },
            {
                "patchline": {
                    "destination": [ "obj-93", 0 ],
                    "source": [ "obj-94", 0 ]
                }
            },
            {
                "patchline": {
                    "destination": [ "obj-94", 0 ],
                    "source": [ "obj-95", 0 ]
                }
            }
        ]
    }
}